<svg width="30" height="30" viewBox="0 0 30 30" fill="none" xmlns="http://www.w3.org/2000/svg">
<path fill-rule="evenodd" clip-rule="evenodd" d="M15.0001 30.0002C6.65337 30.0002 0 23.8235 0 15.8834C0 7.53337 6.1767 0 15.0001 0C23.3035 0 30.2902 7.27004 29.9902 15.5551C30.2285 23.4535 22.5535 30.0002 15.0001 30.0002ZM10.5884 25.5885C9.05339 25.5785 6.1417 24.8385 6.1417 24.8385C8.26694 26.7744 10.9707 27.9565 13.835 28.2021C16.6993 28.4476 19.5648 27.7429 21.9885 26.1968C22.3964 25.966 22.7296 25.623 22.9485 25.2086C23.1674 24.7941 23.2629 24.3255 23.2235 23.8585C23.0735 22.6235 21.9885 21.1751 20.7351 21.1751C19.6684 21.1751 18.7051 21.9251 17.8851 22.5618C17.6901 22.7118 17.5051 22.8618 17.3201 22.9851C15.2201 24.4851 13.2101 25.6051 10.5884 25.5885ZM25.0385 23.5585C26.7152 21.6168 28.2335 19.4118 28.2335 16.7651C28.2335 14.9118 28.2068 12.9351 27.6602 11.1434C27.3502 12.7934 25.5868 14.1167 23.8218 14.1167C21.6151 14.1167 20.0551 12.8834 19.1451 11.3384C17.3184 8.23171 14.7068 6.15003 11.0284 6.1767C5.6017 6.22003 1.76168 10.5884 1.76168 15.8818C1.76168 20.5851 6.10337 23.8935 10.5867 23.8235C13.2334 23.7785 15.2701 22.3235 17.3451 20.8151C18.2901 20.1168 19.5251 19.4118 20.7335 19.4118C22.7451 19.4118 24.7035 21.7051 25.0385 23.5585ZM20.5835 10.3234C21.1568 11.3201 22.0568 12.3534 23.8218 12.3534C27.3502 12.3534 25.5868 6.55504 23.3551 4.73669C20.9751 2.84656 18.0389 1.79284 15.0001 1.73834C11.8417 1.70501 8.25838 3.34502 6.18504 5.12836C6.02615 5.26392 6.04392 5.29336 6.23837 5.2167C7.74671 4.62503 9.38839 4.37836 11.0301 4.41336C15.3001 4.51003 18.4418 6.6717 20.5851 10.3334L20.5835 10.3234ZM7.94171 14.1167C8.17795 14.124 8.41324 14.0837 8.63363 13.9984C8.85401 13.913 9.055 13.7842 9.22467 13.6196C9.39434 13.4551 9.52924 13.2582 9.62136 13.0405C9.71348 12.8229 9.76095 12.5889 9.76095 12.3526C9.76095 12.1162 9.71348 11.8823 9.62136 11.6646C9.52924 11.447 9.39434 11.25 9.22467 11.0855C9.055 10.921 8.85401 10.7922 8.63363 10.7068C8.41324 10.6214 8.17795 10.5811 7.94171 10.5884C7.48321 10.6025 7.04821 10.7945 6.72886 11.1238C6.40952 11.4532 6.23093 11.8939 6.23093 12.3526C6.23093 12.8113 6.40952 13.252 6.72886 13.5813C7.04821 13.9106 7.48321 14.1027 7.94171 14.1167ZM7.94171 15.8834C8.4052 15.8834 8.86415 15.7921 9.29234 15.6147C9.72053 15.4373 10.1096 15.1772 10.4372 14.8494C10.7649 14.5216 11.0247 14.1324 11.202 13.7042C11.3792 13.2759 11.4703 12.8169 11.4701 12.3534C12.1684 12.3531 12.8511 12.5599 13.4319 12.9476C14.0126 13.3354 14.4653 13.8867 14.7327 14.5318C15.0001 15.1769 15.0702 15.8868 14.934 16.5717C14.7979 17.2566 14.4616 17.8857 13.9678 18.3795C13.4741 18.8733 12.8449 19.2095 12.16 19.3457C11.4751 19.4818 10.7652 19.4118 10.1201 19.1444C9.47499 18.877 8.92369 18.4243 8.53593 17.8436C8.14818 17.2628 7.94138 16.5817 7.94171 15.8834ZM7.94171 8.82172C8.56529 8.82163 9.17778 8.98657 9.71698 9.29979C10.2562 9.61301 10.7029 10.0633 11.0117 10.6051L11.4701 10.5867C12.5364 10.5874 13.5777 10.9101 14.4575 11.5125C15.3374 12.115 16.0147 12.9692 16.4009 13.9631C16.7871 14.9571 16.8641 16.0445 16.6217 17.0829C16.3794 18.1214 15.8291 19.0624 15.0429 19.7828C14.2567 20.5032 13.2713 20.9694 12.2157 21.1202C11.16 21.2711 10.0835 21.0996 9.12697 20.6282C8.17047 20.1568 7.37863 19.4076 6.85517 18.4786C6.33171 17.5495 6.10104 16.4841 6.19337 15.4218C5.51517 15.0368 4.98352 14.4382 4.68142 13.7193C4.37932 13.0003 4.32377 12.2016 4.52346 11.4478C4.72314 10.694 5.16682 10.0275 5.78521 9.55243C6.4036 9.07735 7.1619 8.82041 7.94171 8.82172Z" fill="url(#paint0_linear_267_333)"/>
<defs>
<linearGradient id="paint0_linear_267_333" x1="0" y1="0" x2="33.27" y2="25.7794" gradientUnits="userSpaceOnUse">
<stop stop-color="#F2B80C"/>
<stop offset="0.336538" stop-color="#E3AD0A"/>
<stop offset="0.677885" stop-color="#DAA509"/>
<stop offset="1" stop-color="#B18608"/>
</linearGradient>
</defs>
</svg>
